# xmcd CD database file generated by Grip 3.3.1
# 
# Track frame offsets:
#       150
#       22412
#       38747
#       50182
#       66557
#       79677
#       91670
#       108605
#       120050
#       136522
#       147395
#       160990
#       172662
#       184167
# 
# Disc length: 2737 seconds
# 
# Revision: 1
# Processed by: cddbd v1.5.1PL2 Copyright (c) Steve Scherf et al.
# Submitted via: Grip 3.3.1
# 
DISCID=b90aaf0e
DTITLE=Various Artist - A Child's Celebration of Soul
DYEAR=2000
DGENRE=Blues
TTITLE0=Ike and Tina Turner - Proud Mary
TTITLE1=James Brown - Get On The Good Foot
TTITLE2=Jackson 5 - Rockin' Robin
TTITLE3=Linda Tillery and The Cultural Heritage Choir - Name Game
TTITLE4=Sam and Dave - Soul Man
TTITLE5=Archie Bell and The Drells - Tighten Up
TTITLE6=Gladys Knight and The Pips - Friendship Train
TTITLE7=Rufus Thomas - Walkin' The Dog
TTITLE8=Taj Mahal - Function At The Junction
TTITLE9=Aretha Franklin - Respect
TTITLE10=Otis Redding - Chain Gang
TTITLE11=The Rascals - It's A Beautiful Morning
TTITLE12=Robert Parker - Barefootin'
TTITLE13=Taj Mahal - Everyday People
EXTD=
EXTT0=
EXTT1=
EXTT2=
EXTT3=
EXTT4=
EXTT5=
EXTT6=
EXTT7=
EXTT8=
EXTT9=
EXTT10=
EXTT11=
EXTT12=
EXTT13=
PLAYORDER=
